<svg width="14" height="16" viewBox="0 0 14 16" fill="none" xmlns="http://www.w3.org/2000/svg">
<path d="M13.8141 11.9569L6.91116 15.9425L0.00823021 11.9569V3.98562L6.91116 0L13.8141 3.98562V11.9569Z" fill="#469EA2"/>
<path d="M7.61786 0.953125L12.6307 3.84578C12.6225 3.93599 12.6225 4.02676 12.6307 4.11697L7.62608 7.00962C7.42031 6.85749 7.17115 6.77538 6.91524 6.77538C6.65934 6.77538 6.41018 6.85749 6.20441 7.00962L1.19978 4.11697C1.208 4.02676 1.208 3.93599 1.19978 3.84578L6.19619 0.953125C6.40196 1.10526 6.65112 1.18737 6.90703 1.18737C7.16293 1.18737 7.41209 1.10526 7.61786 0.953125ZM0.714935 4.91409L5.72778 7.83962C5.70061 8.09335 5.75433 8.34918 5.88125 8.57055C6.00817 8.79193 6.20181 8.96754 6.4345 9.07228L6.42629 14.8247C6.34524 14.8605 6.26813 14.9045 6.19619 14.9562L1.19157 12.0636C1.21873 11.8098 1.16502 11.554 1.03809 11.3326C0.911171 11.1112 0.717532 10.9356 0.484839 10.8309V5.04558C0.564953 5.00801 0.641901 4.96404 0.714935 4.91409ZM13.1073 4.94696C13.1793 4.99864 13.2564 5.0427 13.3374 5.07845V10.8638C13.1019 10.9648 12.9056 11.1397 12.7781 11.362C12.6506 11.5844 12.5989 11.8421 12.6307 12.0964L7.62608 14.9891C7.55414 14.9374 7.47703 14.8933 7.39598 14.8576V9.07228C7.63152 8.97125 7.82783 8.79638 7.95531 8.57403C8.08278 8.35169 8.13452 8.09393 8.10271 7.83962L13.1073 4.94696Z" fill="#6ACAD1"/>
<path d="M6.91116 0.862788L0.739613 4.4293V11.5541L6.91116 15.1206L13.0827 11.5541V4.42108L6.91116 0.862788ZM6.91116 0.0163574L13.8141 4.00198V11.9732L6.91116 15.9588L0.00823021 11.9732V4.00198L6.91116 0.0163574Z" fill="#469EA2"/>
<path d="M6.86185 9.32709H6.96047C7.13002 9.32753 7.29798 9.29445 7.45471 9.22977C7.61144 9.16508 7.75384 9.07006 7.87373 8.95017C7.99363 8.83028 8.08864 8.68788 8.15333 8.53115C8.21801 8.37442 8.25109 8.20646 8.25066 8.0369V7.93829C8.25109 7.76874 8.21801 7.60077 8.15333 7.44404C8.08864 7.28731 7.99363 7.14491 7.87373 7.02502C7.75384 6.90513 7.61144 6.81011 7.45471 6.74543C7.29798 6.68074 7.13002 6.64767 6.96047 6.6481H6.86185C6.6923 6.64767 6.52433 6.68074 6.3676 6.74543C6.21088 6.81011 6.06847 6.90513 5.94858 7.02502C5.82869 7.14491 5.73367 7.28731 5.66899 7.44404C5.6043 7.60077 5.57123 7.76874 5.57166 7.93829V8.0369C5.57123 8.20646 5.6043 8.37442 5.66899 8.53115C5.73367 8.68788 5.82869 8.83028 5.94858 8.95017C6.06847 9.07006 6.21088 9.16508 6.3676 9.22977C6.52433 9.29445 6.6923 9.32753 6.86185 9.32709ZM6.86185 14.6276H6.96047C7.18968 14.6269 7.41492 14.6875 7.61286 14.803C7.8108 14.9186 7.97426 15.085 8.0863 15.285L6.91116 15.9588L5.73602 15.285C5.84806 15.085 6.01152 14.9186 6.20946 14.803C6.4074 14.6875 6.63263 14.6269 6.86185 14.6276ZM1.23978e-05 10.6419H0.0493183C0.21887 10.6415 0.386837 10.6746 0.543566 10.7393C0.700295 10.8039 0.842696 10.899 0.962587 11.0189C1.08248 11.1387 1.1775 11.2812 1.24218 11.4379C1.30687 11.5946 1.33994 11.7626 1.33951 11.9321V12.0307C1.34069 12.2498 1.28399 12.4652 1.17515 12.6553L1.23978e-05 11.9732V10.6419ZM1.17515 3.32812C1.28303 3.51859 1.33966 3.73378 1.33951 3.95267V4.05128C1.33994 4.22084 1.30687 4.3888 1.24218 4.54553C1.1775 4.70226 1.08248 4.84466 0.962587 4.96455C0.842696 5.08444 0.700295 5.17946 0.543566 5.24415C0.386837 5.30883 0.21887 5.34191 0.0493183 5.34147H1.23978e-05V4.00198L1.17515 3.32812ZM6.91116 0.0163574L8.0863 0.690215C7.97479 0.891257 7.81167 1.05892 7.61378 1.17593C7.41588 1.29293 7.19036 1.35504 6.96047 1.35585H6.86185C6.63263 1.35654 6.4074 1.29596 6.20946 1.18037C6.01152 1.06479 5.84806 0.8984 5.73602 0.698432L6.91116 0.0163574ZM12.6389 3.3199L13.8141 4.00198V5.34147H13.7648C13.5952 5.34191 13.4273 5.30883 13.2705 5.24415C13.1138 5.17946 12.9714 5.08444 12.8515 4.96455C12.7316 4.84466 12.6366 4.70226 12.5719 4.54553C12.5072 4.3888 12.4742 4.22084 12.4746 4.05128V3.95267C12.4774 3.73156 12.5338 3.51442 12.6389 3.3199ZM13.7648 10.6419H13.8141V11.9732L12.6389 12.6553C12.5311 12.4648 12.4744 12.2496 12.4746 12.0307V11.9321C12.4742 11.7626 12.5072 11.5946 12.5719 11.4379C12.6366 11.2812 12.7316 11.1387 12.8515 11.0189C12.9714 10.899 13.1138 10.8039 13.2705 10.7393C13.4273 10.6746 13.5952 10.6415 13.7648 10.6419Z" fill="#469EA2"/>
<path d="M6.91116 16V8.02053L13.8141 4.03491V12.0144L6.91116 16Z" fill="#083B54" fill-opacity="0.15"/>
<path d="M5.67436e-05 11.9405V3.96924L6.90298 7.95486V15.9343L5.67436e-05 11.9405Z" fill="#083B54" fill-opacity="0.05"/>
</svg>
